<?xml version="1.0" encoding="UTF-8"?>
<svg width="500px" height="500px" viewBox="0 0 500 500" version="1.1" xmlns="http://www.w3.org/2000/svg" xmlns:xlink="http://www.w3.org/1999/xlink">
    <!-- Generator: Sketch 3.8.1 (29687) - http://www.bohemiancoding.com/sketch -->
    <title>Artboard 1</title>
    <desc>Created with Sketch.</desc>
    <defs></defs>
    <g id="Page-1" stroke="none" stroke-width="1" fill="none" fill-rule="evenodd">
        <polygon id="Board" stroke="#FF0000" stroke-width="20" stroke-linecap="round" stroke-linejoin="round" fill="#FFFFFF" transform="translate(249.500000, 249.500000) scale(1, -1) translate(-249.500000, -249.500000) " points="249.5 24 475 475 24 475"></polygon>
        <g id="Artboard-1">
            <circle id="cup_6" fill="#FF0000" cx="370" cy="92" r="40"></circle>
            <circle id="cup_5" fill="#FF0000" cx="250" cy="92" r="40"></circle>
            <circle id="cup_4" fill="#FF0000" cx="130" cy="92" r="40"></circle>
            <circle id="cup_3" fill="#FF0000" cx="310" cy="204" r="40"></circle>
            <circle id="cup_2" fill="#FF0000" cx="190" cy="204" r="40"></circle>
            <circle id="cup_1" fill="#FF0000" cx="250" cy="324" r="40"></circle>
            <circle id="inner_6" stroke="#909090" fill="#FFFFFF" cx="370.5" cy="92.5" r="29.5"></circle>
            <circle id="inner_5" stroke="#909090" fill="#FFFFFF" cx="250.5" cy="92.5" r="29.5"></circle>
            <circle id="inner_4" stroke="#909090" fill="#FFFFFF" cx="130.5" cy="92.5" r="29.5"></circle>
            <circle id="inner_3" stroke="#909090" fill="#FFFFFF" cx="310.5" cy="204.5" r="29.5"></circle>
            <circle id="inner_2" stroke="#909090" fill="#FFFFFF" cx="190.5" cy="204.5" r="29.5"></circle>
            <circle id="inner_1" stroke="#909090" fill="#FFFFFF" cx="250.5" cy="324.5" r="29.5"></circle>
            <g id="check_1" transform="translate(230.000000, 308.000000)" fill="#2AE223">
                <rect id="Rectangle-1" transform="translate(24.000000, 17.000000) rotate(-45.000000) translate(-24.000000, -17.000000) " x="4" y="14" width="40" height="6"></rect>
                <rect id="Rectangle-1" transform="translate(7.500000, 25.000000) scale(-1, 1) rotate(-45.000000) translate(-7.500000, -25.000000) " x="-5.68434189e-14" y="22" width="15" height="6"></rect>
            </g>
            <g id="check_2" transform="translate(169.000000, 187.000000)" fill="#2AE223">
                <rect id="Rectangle-1" transform="translate(24.000000, 17.000000) rotate(-45.000000) translate(-24.000000, -17.000000) " x="4" y="14" width="40" height="6"></rect>
                <rect id="Rectangle-1" transform="translate(7.500000, 25.000000) scale(-1, 1) rotate(-45.000000) translate(-7.500000, -25.000000) " x="-5.68434189e-14" y="22" width="15" height="6"></rect>
            </g>
            <g id="check_3" transform="translate(290.000000, 187.000000)" fill="#2AE223">
                <rect id="Rectangle-1" transform="translate(24.000000, 17.000000) rotate(-45.000000) translate(-24.000000, -17.000000) " x="4" y="14" width="40" height="6"></rect>
                <rect id="Rectangle-1" transform="translate(7.500000, 25.000000) scale(-1, 1) rotate(-45.000000) translate(-7.500000, -25.000000) " x="-5.68434189e-14" y="22" width="15" height="6"></rect>
            </g>
            <g id="check_4" transform="translate(109.000000, 75.000000)" fill="#2AE223">
                <rect id="Rectangle-1" transform="translate(24.000000, 17.000000) rotate(-45.000000) translate(-24.000000, -17.000000) " x="4" y="14" width="40" height="6"></rect>
                <rect id="Rectangle-1" transform="translate(7.500000, 25.000000) scale(-1, 1) rotate(-45.000000) translate(-7.500000, -25.000000) " x="-5.68434189e-14" y="22" width="15" height="6"></rect>
            </g>
            <g id="check_5" transform="translate(230.000000, 75.000000)" fill="#2AE223">
                <rect id="Rectangle-1" transform="translate(24.000000, 17.000000) rotate(-45.000000) translate(-24.000000, -17.000000) " x="4" y="14" width="40" height="6"></rect>
                <rect id="Rectangle-1" transform="translate(7.500000, 25.000000) scale(-1, 1) rotate(-45.000000) translate(-7.500000, -25.000000) " x="-5.68434189e-14" y="22" width="15" height="6"></rect>
            </g>
            <g id="check_6" transform="translate(350.000000, 75.000000)" fill="#2AE223">
                <rect id="Rectangle-1" transform="translate(24.000000, 17.000000) rotate(-45.000000) translate(-24.000000, -17.000000) " x="4" y="14" width="40" height="6"></rect>
                <rect id="Rectangle-1" transform="translate(7.500000, 25.000000) scale(-1, 1) rotate(-45.000000) translate(-7.500000, -25.000000) " x="-5.68434189e-14" y="22" width="15" height="6"></rect>
            </g>
        </g>
    </g>
</svg>